<?xml version="1.0" encoding="UTF-8"?>
<svg width="482px" height="88px" viewBox="0 0 482 88" version="1.1" xmlns="http://www.w3.org/2000/svg" xmlns:xlink="http://www.w3.org/1999/xlink">
    <!-- Generator: sketchtool 52.6 (67491) - http://www.bohemiancoding.com/sketch -->
    <title>E7DC8C4A-ED42-47FD-B0E2-9EA9B5AB47FD</title>
    <desc>Created with sketchtool.</desc>
    <defs>
        <path d="M3.0214,59.1701 C4.3122,57.6262 5.8689,57.6648 7.6913,59.2859 C8.5265,59.9806 9.5327,60.6175 10.7096,61.1964 C11.8866,61.7754 13.3103,62.0649 14.9809,62.0649 C17.0311,62.0649 18.7396,61.6017 20.1064,60.6754 C21.4732,59.749 22.1566,58.5139 22.1566,56.97 C22.1566,55.5033 21.5681,54.2296 20.3912,53.1488 C19.2142,52.0681 17.0311,50.7172 13.8419,49.0961 C11.7917,48.0926 9.9693,47.0504 8.3747,45.9697 C6.7801,44.889 5.4323,43.7117 4.3312,42.438 C3.2302,41.1643 2.3759,39.7555 1.7685,38.2116 C1.161,36.6677 0.8572,34.8536 0.8572,32.7693 C0.8572,30.6851 1.2369,28.7166 1.9963,26.8639 C2.7556,25.0112 3.8376,23.3901 5.2424,22.0006 C6.6472,20.6111 8.3557,19.5111 10.3679,18.7005 C12.3802,17.89 14.6392,17.4847 17.145,17.4847 C20.1824,17.4847 22.878,18.0637 25.2319,19.2216 C27.5859,20.3795 29.2944,21.5374 30.3574,22.6954 C30.9649,23.4673 31.2876,24.2972 31.3256,25.1849 C31.3636,26.0727 31.0408,26.8639 30.3574,27.5587 L28.3072,29.7587 C27.6238,30.4535 26.9214,30.8973 26.2001,31.0903 C25.4787,31.2833 24.7384,30.9938 23.979,30.2219 C21.9288,28.292 19.6508,27.3271 17.145,27.3271 C14.9429,27.3271 13.3293,27.8288 12.3042,28.8324 C11.2791,29.8359 10.7666,31.1482 10.7666,32.7693 C10.7666,34.3132 11.4879,35.6255 12.9307,36.7063 C14.3734,37.787 16.1958,38.8291 18.3979,39.8327 C20.5241,40.759 22.4414,41.7626 24.1499,42.8433 C25.8584,43.924 27.3201,45.1012 28.535,46.375 C29.75,47.6487 30.6991,49.0768 31.3825,50.6593 C32.0659,52.2418 32.4076,54.0752 32.4076,56.1595 C32.4076,58.7069 31.9141,60.9648 30.9269,62.9333 C29.9398,64.9018 28.63,66.5615 26.9974,67.9124 C25.3648,69.2633 23.5044,70.2669 21.4163,70.923 C19.3281,71.5792 17.2209,71.9073 15.0948,71.9073 C11.6018,71.9073 8.7164,71.4248 6.4384,70.4599 C4.1603,69.4949 2.338,68.2019 0.9712,66.5808 C0.3637,65.886 0.041,65.0755 0.003,64.1491 C-0.035,63.2228 0.2877,62.4123 0.9712,61.7175 L3.0214,59.1701 Z M110.3998,62.3196 C120.12,62.3196 127.9998,54.45 127.9998,44.7423 C127.9998,35.0346 120.12,27.1649 110.3998,27.1649 C100.6796,27.1649 92.7998,35.0346 92.7998,44.7423 C92.7998,54.45 100.6796,62.3196 110.3998,62.3196 Z M110.4002,71.9074 C95.3781,71.9074 83.2002,59.7452 83.2002,44.7424 C83.2002,29.7396 95.3781,17.5774 110.4002,17.5774 C125.4223,17.5774 137.6002,29.7396 137.6002,44.7424 C137.6002,59.7452 125.4223,71.9074 110.4002,71.9074 Z M159.4635,71.5484 C154.6037,71.5484 150.7501,70.1975 148.586,67.4956 C146.4219,64.7938 145.3398,61.127 145.3398,56.4953 L145.3398,4.2728 C145.3398,3.1921 145.6436,2.3429 146.251,1.7254 C146.8585,1.1078 147.6938,0.799 148.7568,0.799 L152.1738,0.799 C153.2369,0.799 154.0722,1.1078 154.6797,1.7254 C155.2871,2.3429 155.5909,3.1921 155.5909,4.2728 L155.5909,57.6532 C155.5909,58.8884 155.9326,59.8726 156.616,60.6059 C157.2994,61.3393 159.7102,61.706 161.0011,61.706 L167.1749,70.3807 C167.6339,71.0256 167.3639,71.5484 166.5569,71.5484 L159.4635,71.5484 Z M219.9445,72 C218.8815,72 218.0462,71.6493 217.4387,71.0145 C216.8313,70.3797 216.5275,69.4973 216.5275,68.3864 L216.5275,37.2164 C216.5275,31.4239 218.1221,26.7026 221.3114,23.0525 C224.5006,19.4025 228.9426,17.5774 234.6377,17.5774 L243.8683,26.6874 C244.4319,27.2436 244.2461,27.6945 243.4564,27.6945 L235.3211,27.6945 C232.4356,27.6945 230.2905,28.6268 228.8857,30.4916 C227.4809,32.3563 226.7786,34.7962 226.7786,37.8115 L226.7786,68.3864 C226.7786,69.4973 226.4748,70.3797 225.8674,71.0145 C225.2599,71.6493 224.4246,72 223.3616,72 L219.9445,72 Z M277.749,29.6429 C277.749,28.871 277.3693,28.485 276.61,28.485 L268.0674,28.485 C264.2707,28.485 261.3283,29.6815 259.2402,32.0746 C257.152,34.4676 256.1079,37.3238 256.1079,40.6432 L256.1079,52.1067 C256.1079,55.0401 256.9621,57.4332 258.6707,59.2859 C260.3792,61.1385 262.7521,62.0649 265.7894,62.0649 C267.8397,62.0649 269.6051,61.6982 271.0858,60.9649 C272.5665,60.2315 273.8004,59.2473 274.7876,58.0121 C275.7747,56.777 276.515,55.4068 277.0086,53.9015 C277.5022,52.3962 277.749,50.833 277.749,49.2119 L277.749,29.6429 Z M277.2364,66.4962 C276.8947,66.3804 276.572,66.5155 276.2683,66.9014 C275.2052,68.3682 273.6296,69.5647 271.5414,70.491 C269.4532,71.4174 266.9285,71.8806 263.967,71.8806 C261.3093,71.8806 258.8795,71.3788 256.6774,70.3752 C254.4753,69.3717 252.577,67.9436 250.9824,66.0909 C249.3878,64.2382 248.1349,62.0189 247.2237,59.4328 C246.3125,56.8468 245.8569,54.0099 245.8569,50.9221 L245.8569,40.6165 C245.8569,37.6059 246.3884,34.7497 247.4515,32.0478 C248.5146,29.346 250.0142,27.0109 251.9505,25.0424 C253.8869,23.0739 256.1838,21.5107 258.8415,20.3528 C261.4992,19.1948 264.4226,18.6159 267.6118,18.6159 L284.583,18.6159 C285.6461,18.6159 286.4813,18.9247 287.0888,19.5422 C287.6963,20.1598 288,21.0089 288,22.0897 L288,70.4441 C288,71.2374 287.4238,71.5895 286.7185,71.2333 C286.7185,71.2333 277.5781,66.612 277.2364,66.4962 Z M40,67.8167 L40,3.4738 C40,2.393 40.3037,1.5439 40.9112,0.9263 C41.5187,0.3088 42.3539,0 43.417,0 L46.834,0 C47.8971,0 48.7324,0.3088 49.3398,0.9263 C49.9473,1.5439 50.251,2.393 50.251,3.4738 L50.251,67.8167 C50.251,68.8975 49.9473,69.7466 49.3398,70.3642 C48.7324,70.9817 47.8971,71.2905 46.834,71.2905 L43.417,71.2905 C42.3539,71.2905 41.5187,70.9817 40.9112,70.3642 C40.3037,69.7466 40,68.8975 40,67.8167 Z M58.304,34.0157 L67.872,22.8752 C70.888,19.3403 72.864,18.3762 77.544,18.3762 L79.312,18.3762 C83.992,18.3762 84.408,19.2332 81.288,22.8752 L66.832,39.586 C65.584,41.0856 64.752,42.264 64.752,43.4423 C64.752,44.4064 65.48,45.6918 66.728,47.1915 L83.368,67.0087 C86.488,70.6507 86.072,71.5077 81.392,71.5077 L79.624,71.5077 C74.944,71.5077 72.968,70.5436 69.952,67.0087 L58.304,52.976 C55.496,49.6552 54.144,46.4416 54.144,43.1209 C54.144,39.6931 55.08,37.872 58.304,34.0157 Z M188.9342,48.4013 L183.1446,39.7169 L196.8797,39.7169 C197.6391,39.7169 198.0187,39.3309 198.0187,38.559 L198.0187,37.98 C198.0187,35.0466 197.2214,32.5378 195.6268,30.4535 C194.0322,28.3692 191.4125,27.3271 187.7677,27.3271 C184.1988,27.3271 181.693,28.3692 180.2503,30.4535 C178.8075,32.5378 178.0862,35.0466 178.0862,37.98 L178.0862,38.559 C178.0862,38.6443 178.0908,38.7249 178.1001,38.8009 L178.1001,49.3174 C178.0908,49.3933 178.0862,49.4739 178.0862,49.5593 L178.0862,51.6435 C178.0862,54.577 178.9404,57.0472 180.6489,59.0543 C182.3574,61.0614 185.0341,62.0649 188.6789,62.0649 C192.3237,62.0649 196.3102,59.5174 196.3102,59.5174 L204.6861,63.5245 C205.4072,63.8695 205.5328,64.5894 204.9387,65.1414 C204.9387,65.1414 202.2331,67.8545 199.2716,69.4756 C196.3102,71.0967 192.7793,71.9073 188.6789,71.9073 C185.4897,71.9073 182.6232,71.3862 180.0794,70.3441 C177.5356,69.3019 175.3526,67.8545 173.5302,66.0018 C171.7077,64.1491 170.303,61.9877 169.3158,59.5174 C168.3287,57.0472 167.8351,54.4226 167.8351,51.6435 L167.8351,37.98 C167.8351,35.201 168.2718,32.5571 169.145,30.0482 C170.0182,27.5393 171.3091,25.3586 173.0176,23.5059 C174.7261,21.6532 176.8143,20.1865 179.2821,19.1058 C181.75,18.0251 184.5785,17.4847 187.7677,17.4847 C190.9569,17.4847 193.8044,18.0251 196.3102,19.1058 C198.816,20.1865 200.9612,21.6532 202.7456,23.5059 C204.53,25.3586 205.8968,27.5393 206.846,30.0482 C207.7952,32.5571 208.2698,35.201 208.2698,37.98 L208.2698,44.9276 C208.2698,46.0083 207.966,46.8574 207.3586,47.475 C206.7511,48.0926 205.9158,48.4013 204.8528,48.4013 L188.9342,48.4013 Z" id="path-1"></path>
        <path d="M56.3438,50.2054 L118.9687,28.8393 C121.6762,27.9156 121.6774,24.0868 118.9705,23.1613 L95.5705,15.1613 C94.9442,14.9472 94.2646,14.9462 93.6377,15.1585 L44.3627,31.8453 L31.6575,27.8749 L90.9687,7.6393 C91.408,7.4894 91.79,7.2477 92.1006,6.9428 L138.4037,22.4732 C140.5512,23.1932 142,25.2156 142,27.4928 L142,31.2909 L124.738,37.0972 L109.1295,42.3324 L72.663,54.5634 C72.1232,54.744 71.5616,54.8347 71,54.8347 C70.4384,54.8347 69.8768,54.7446 69.337,54.5634 L56.3438,50.2054 Z M47.6786,47.2991 L32.8705,42.3324 L3.5963,32.5136 C1.4488,31.793 0,29.7712 0,27.4931 C0,25.2156 1.4488,23.1932 3.5963,22.4732 L69.337,0.4233 C69.8765,0.2422 70.4384,0.1518 71,0.1518 C71.5616,0.1518 72.1232,0.2422 72.663,0.4233 L83.1892,3.9539 L21.0313,25.1607 C18.2857,26.0974 18.3362,29.9981 21.1052,30.8634 L43.5052,37.8634 C44.111,38.0527 44.7612,38.0451 45.3623,37.8415 L94.5954,21.1689 L108.7178,25.9971 L49.0313,46.3607 C48.4813,46.5484 48.0211,46.8799 47.6786,47.2991 Z M75.9897,64.6044 L109.1295,53.489 L109.1295,71.5934 C109.1295,73.8709 107.6807,75.893 105.5332,76.6133 L72.663,87.6382 C72.1232,87.8196 71.5613,87.9103 71,87.9103 C70.4387,87.9103 69.8768,87.8196 69.337,87.6382 L36.4665,76.6133 C34.3191,75.8933 32.8702,73.8712 32.8702,71.5934 L32.8702,53.489 L66.0106,64.6044 C67.6222,65.1452 69.301,65.419 71,65.419 C72.699,65.419 74.3778,65.1452 75.9897,64.6044 Z" id="path-3"></path>
        <linearGradient x1="12.4857469%" y1="24.6615052%" x2="12.4857469%" y2="120.992643%" id="linearGradient-5">
            <stop stop-color="#25E1F6" offset="0%"></stop>
            <stop stop-color="#11DE94" offset="100%"></stop>
        </linearGradient>
        <path d="M56.3438,50.2054 L118.9687,28.8393 C121.6762,27.9156 121.6774,24.0868 118.9705,23.1613 L95.5705,15.1613 C94.9442,14.9472 94.2646,14.9462 93.6377,15.1585 L44.3627,31.8453 L31.6575,27.8749 L90.9687,7.6393 C91.408,7.4894 91.79,7.2477 92.1006,6.9428 L138.4037,22.4732 C140.5512,23.1932 142,25.2156 142,27.4928 L142,31.2909 L124.738,37.0972 L109.1295,42.3324 L72.663,54.5634 C72.1232,54.744 71.5616,54.8347 71,54.8347 C70.4384,54.8347 69.8768,54.7446 69.337,54.5634 L56.3438,50.2054 Z M47.6786,47.2991 L32.8705,42.3324 L3.5963,32.5136 C1.4488,31.793 0,29.7712 0,27.4931 C0,25.2156 1.4488,23.1932 3.5963,22.4732 L69.337,0.4233 C69.8765,0.2422 70.4384,0.1518 71,0.1518 C71.5616,0.1518 72.1232,0.2422 72.663,0.4233 L83.1892,3.9539 L21.0313,25.1607 C18.2857,26.0974 18.3362,29.9981 21.1052,30.8634 L43.5052,37.8634 C44.111,38.0527 44.7612,38.0451 45.3623,37.8415 L94.5954,21.1689 L108.7178,25.9971 L49.0313,46.3607 C48.4813,46.5484 48.0211,46.8799 47.6786,47.2991 Z M75.9897,64.6044 L109.1295,53.489 L109.1295,71.5934 C109.1295,73.8709 107.6807,75.893 105.5332,76.6133 L72.663,87.6382 C72.1232,87.8196 71.5613,87.9103 71,87.9103 C70.4387,87.9103 69.8768,87.8196 69.337,87.6382 L36.4665,76.6133 C34.3191,75.8933 32.8702,73.8712 32.8702,71.5934 L32.8702,53.489 L66.0106,64.6044 C67.6222,65.1452 69.301,65.419 71,65.419 C72.699,65.419 74.3778,65.1452 75.9897,64.6044 Z" id="path-6"></path>
        <linearGradient x1="16.5336374%" y1="24.6615052%" x2="16.5336374%" y2="32.9172446%" id="linearGradient-8">
            <stop stop-color="#25E1F6" offset="0%"></stop>
            <stop stop-color="#11DE94" offset="100%"></stop>
        </linearGradient>
        <path d="M10.912,1.3351 C10.912,1.5505 10.7441,1.6797 10.5133,1.6797 L6.4213,1.6797 L6.4213,15.5693 C6.4213,15.7847 6.2744,16 6.0436,16 L4.8894,16 C4.6796,16 4.5117,15.8062 4.5117,15.5693 L4.5117,1.6797 L0.4197,1.6797 C0.1889,1.6797 0,1.572 0,1.3351 L0,0.3876 C0,0.1723 0.1889,0 0.4197,0 L10.5133,0 C10.7441,0 10.912,0.1507 10.912,0.3876 L10.912,1.3351 Z M26,15.5693 C26,15.8062 25.8111,16 25.5803,16 L24.5521,16 C24.3212,16 24.1324,15.8062 24.1324,15.5693 L24.1324,2.7995 C24.1324,2.7564 24.1324,2.7349 24.1114,2.7349 C24.0904,2.7349 24.0904,2.7349 24.0694,2.7779 L21.0686,9.1521 C20.8588,9.5828 20.6489,9.7766 20.1243,9.7766 L19.159,9.7766 C18.6344,9.7766 18.4245,9.5828 18.2147,9.1521 L15.2139,2.7779 C15.1929,2.7349 15.1929,2.7349 15.1719,2.7349 C15.1509,2.7349 15.1509,2.7564 15.1509,2.7995 L15.1509,15.5693 C15.1509,15.8062 14.9621,16 14.7312,16 L13.703,16 C13.4722,16 13.2833,15.8062 13.2833,15.5693 L13.2833,0.6245 C13.2833,0.2799 13.5561,0 13.8918,0 L15.2559,0 C15.6336,0 15.8015,0.0861 15.9274,0.3661 L19.3898,7.7524 C19.4738,7.9462 19.5367,7.9892 19.6416,7.9892 C19.7466,7.9892 19.8095,7.9462 19.8935,7.7524 L23.3559,0.3661 C23.4818,0.0861 23.6497,0 24.0274,0 L25.3914,0 C25.7272,0 26,0.2799 26,0.6245 L26,15.5693 Z" id="path-9"></path>
    </defs>
    <g id="Symbols" stroke="none" stroke-width="1" fill="none" fill-rule="evenodd">
        <g id="logo">
            <g id="Group">
                <g id="Group-292" transform="translate(162.000000, 8.000000)">
                    <mask id="mask-2" fill="white">
                        <use xlink:href="#path-1"></use>
                    </mask>
                    <g id="Clip-291"></g>
                    <polygon id="Fill-290" fill="#98A4BA" mask="url(#mask-2)" points="-5 77 293 77 293 -5 -5 -5"></polygon>
                </g>
                <g id="Group-299">
                    <g id="Group-295">
                        <mask id="mask-4" fill="white">
                            <use xlink:href="#path-3"></use>
                        </mask>
                        <g id="Clip-294"></g>
                        <polygon id="Fill-293" fill="url(#linearGradient-5)" mask="url(#mask-4)" points="-219 801 1535 801 1535 -262 -219 -262"></polygon>
                    </g>
                    <g id="Group-298">
                        <mask id="mask-7" fill="white">
                            <use xlink:href="#path-6"></use>
                        </mask>
                        <g id="Clip-297"></g>
                        <polygon id="Fill-296" fill="url(#linearGradient-8)" mask="url(#mask-7)" points="-219 801 1535 801 1535 -262 -219 -262"></polygon>
                    </g>
                </g>
                <g id="Group-302" transform="translate(456.000000, 8.000000)">
                    <mask id="mask-10" fill="white">
                        <use xlink:href="#path-9"></use>
                    </mask>
                    <g id="Clip-301"></g>
                    <polygon id="Fill-300" fill="#98A4BA" mask="url(#mask-10)" points="-5 21 31 21 31 -5 -5 -5"></polygon>
                </g>
            </g>
        </g>
    </g>
</svg>