<svg xmlns="http://www.w3.org/2000/svg" width="24" height="24" viewBox="0 0 24 24">
    <path fill="#007ee5" fill-rule="evenodd" d="M17.013 8.657c1.724.43 2.984 1.983 2.987 3.73 0 .966-.378 1.894-1.073 2.617a4.022 4.022 0 0 1-2.638 1.233H13.815a.431.431 0 0 1-.445-.42c0-.234.198-.42.445-.42h2.424c1.586-.116 2.873-1.461 2.873-3.01 0-1.46-1.106-2.74-2.57-2.977a.43.43 0 0 1-.368-.374c-.185-1.825-1.787-3.201-3.728-3.201-1.445 0-2.774.797-3.389 2.034a.456.456 0 0 1-.556.214 1.702 1.702 0 0 0-.563-.093c-.908 0-1.648.7-1.648 1.56 0 .19.033.368.099.536a.413.413 0 0 1-.194.51c-.807.446-1.307 1.269-1.307 2.15 0 1.364 1.132 2.576 2.478 2.654h2.816c.247 0 .444.186.444.42 0 .234-.197.42-.444.42H7.326c-.895-.046-1.734-.448-2.369-1.127C4.34 14.45 4 13.612 4 12.749c0-1.068.55-2.071 1.454-2.694a2.49 2.49 0 0 1-.052-.498c0-1.324 1.138-2.402 2.536-2.402a2.8 2.8 0 0 1 .487.044A4.48 4.48 0 0 1 9.93 5.7 4.811 4.811 0 0 1 12.443 5a4.77 4.77 0 0 1 3.125 1.15 4.311 4.311 0 0 1 1.445 2.507zm-2.346 4.49a.456.456 0 0 1-.625 0l-1.596-1.51v6.943c0 .233-.198.42-.444.42a.431.431 0 0 1-.445-.42v-6.943l-1.595 1.51a.446.446 0 0 1-.313.125.46.46 0 0 1-.312-.124.404.404 0 0 1 0-.595l2.352-2.227a.448.448 0 0 1 .313-.125c.115 0 .23.047.312.125l2.353 2.227a.404.404 0 0 1 0 .595z"/>
</svg>
